<svg width="1861" height="1861" viewBox="0 0 1861 1861" fill="none" xmlns="http://www.w3.org/2000/svg">
<g filter="url(#filter0_d)">
<path d="M1857 926.5C1857 1438.19 1442.19 1853 930.5 1853C418.808 1853 4 1438.19 4 926.5C4 414.808 418.808 0 930.5 0C1442.19 0 1857 414.808 1857 926.5Z" fill="#FDFDFD"/>
<path d="M1856.5 926.5C1856.5 1437.92 1441.92 1852.5 930.5 1852.5C419.084 1852.5 4.5 1437.92 4.5 926.5C4.5 415.084 419.084 0.5 930.5 0.5C1441.92 0.5 1856.5 415.084 1856.5 926.5Z" stroke="none" stroke-opacity="0.38"/>
<path d="M1856.5 926.5C1856.5 1437.92 1441.92 1852.5 930.5 1852.5C419.084 1852.5 4.5 1437.92 4.5 926.5C4.5 415.084 419.084 0.5 930.5 0.5C1441.92 0.5 1856.5 415.084 1856.5 926.5Z" stroke="url(#paint0_angular)"/>
</g>
<defs>
<filter id="filter0_d" x="0" y="0" width="1861" height="1861" filterUnits="userSpaceOnUse" color-interpolation-filters="sRGB">
<feFlood flood-opacity="0" result="BackgroundImageFix"/>
<feColorMatrix in="SourceAlpha" type="matrix" values="0 0 0 0 0 0 0 0 0 0 0 0 0 0 0 0 0 0 127 0"/>
<feOffset dy="4"/>
<feGaussianBlur stdDeviation="2"/>
<feColorMatrix type="matrix" values="0 0 0 0 0 0 0 0 0 0 0 0 0 0 0 0 0 0 0.25 0"/>
<feBlend mode="normal" in2="BackgroundImageFix" result="effect1_dropShadow"/>
<feBlend mode="normal" in="SourceGraphic" in2="effect1_dropShadow" result="shape"/>
</filter>
<radialGradient id="paint0_angular" cx="0" cy="0" r="1" gradientUnits="userSpaceOnUse" gradientTransform="translate(930.5 926.5) rotate(90) scale(926.5)">
<stop stop-color="#B79FCE"/>
<stop offset="0.322917" stop-color="white" stop-opacity="0"/>
</radialGradient>
</defs>
</svg>
