<svg width="183" height="183" viewBox="0 0 183 183" fill="none" xmlns="http://www.w3.org/2000/svg">
<path d="M124.274 44.9899L90.4519 79.0944L56.7949 45.1442C56.0439 44.3894 55.1532 43.7885 54.174 43.3764C53.1948 42.9642 52.1467 42.7489 51.09 42.7428C50.0334 42.7368 48.9893 42.9401 48.0179 43.3411C47.0466 43.7422 46.1673 44.3329 45.4308 45.0792C43.9424 46.5948 43.1177 48.6434 43.1341 50.784C43.1505 52.9246 44.0068 54.9861 45.5186 56.5247L79.183 90.4675L45.376 124.572C43.896 126.087 43.0778 128.131 43.0969 130.265C43.116 132.399 43.971 134.454 45.4784 135.988C46.2274 136.741 47.1156 137.341 48.092 137.753C49.0683 138.165 50.1135 138.381 51.1675 138.389C52.2215 138.397 53.2635 138.197 54.2336 137.8C55.2037 137.403 56.0828 136.817 56.8204 136.075L90.6202 101.993L125.631 137.297C126.38 138.05 127.269 138.65 128.245 139.062C129.221 139.474 130.267 139.69 131.321 139.698C132.375 139.706 133.417 139.506 134.387 139.109C135.357 138.712 136.236 138.125 136.974 137.384C138.459 135.867 139.282 133.819 139.266 131.679C139.25 129.539 138.395 127.478 136.886 125.939L101.874 90.6342L135.681 56.5296C137.169 55.0153 137.993 52.9688 137.978 50.83C137.963 48.6912 137.11 46.6308 135.601 45.0916C134.854 44.3387 133.968 43.7385 132.993 43.3257C132.019 42.9129 130.975 42.6955 129.922 42.6861C128.87 42.6767 127.829 42.8753 126.859 43.2707C125.89 43.6661 125.011 44.2503 124.274 44.9899Z" fill="#A8BED6"/>
</svg>
