<svg width="214" height="230" viewBox="0 0 214 230" fill="none" xmlns="http://www.w3.org/2000/svg">
<path d="M206.471 103.458L206.49 103.476L206.509 103.495C206.856 103.831 207.095 104.264 207.194 104.738L213.067 103.508L207.194 104.738C207.293 105.211 207.248 105.704 207.065 106.151C206.882 106.599 206.569 106.982 206.167 107.25L209.494 112.243L206.167 107.25C205.764 107.518 205.29 107.66 204.807 107.657L204.786 107.657H204.766H183.043H177.043V113.657V201.848C177.043 214.232 168.203 223.099 158.914 223.099H145.614V156.419C145.614 138.825 132.735 123.152 115.484 123.152H96.1517C78.9984 123.152 66.0169 138.841 66.1038 156.434V223.099H51.0965C41.8019 223.099 32.951 214.226 32.951 201.848V113.657V107.657H26.951H8.49642H8.47008L8.44374 107.657C7.95956 107.661 7.48522 107.52 7.08193 107.252C6.67864 106.984 6.36489 106.602 6.18117 106.154C5.99744 105.706 5.95218 105.213 6.05122 104.739C6.15026 104.265 6.38905 103.832 6.73679 103.495L6.75554 103.476L6.77413 103.458L104.91 6.70408C104.911 6.70342 104.912 6.70276 104.912 6.7021C105.371 6.25211 105.988 6 106.631 6C107.274 6 107.89 6.25192 108.349 6.70163C108.35 6.70245 108.351 6.70327 108.352 6.70409L206.471 103.458Z" stroke="white" stroke-width="12"/>
</svg>
