<svg width="71" height="70" viewBox="0 0 71 70" fill="none" xmlns="http://www.w3.org/2000/svg">
<path d="M2.91716 67.5052C2.91208 67.502 2.907 67.4991 2.90195 67.4965C2.89682 67.4938 2.89171 67.4914 2.88664 67.4893L2.87811 67.8122L2.87166 67.7464L2.85754 67.6023L2.8575 67.6019L2.8536 67.5621L2.84868 67.5119L2.87527 67.5093L2.89749 67.5071L2.91716 67.5052ZM2.91716 67.5052L2.90227 67.4958L2.90209 67.4957L2.90173 67.4955L2.8536 67.4653M2.91716 67.5052L2.91785 67.5056L2.8536 67.4653M2.8536 67.4653C2.84433 67.4626 2.83536 67.46 2.82674 67.4576L2.8536 67.4653ZM37.1315 2.5C42.1704 2.50472 47.1322 3.69557 51.5987 5.96973C56.0655 8.24401 59.9039 11.5338 62.794 15.5581C65.684 19.582 67.5422 24.2235 68.216 29.0911C68.8899 33.9586 68.3604 38.914 66.6708 43.5414C64.9811 48.1691 62.1795 52.3363 58.4971 55.6897C54.8146 59.0434 50.3594 61.4847 45.5051 62.8037C40.6506 64.1227 35.5428 64.2797 30.6128 63.2612C25.683 62.2427 21.0792 60.0793 17.1881 56.9572L15.4502 55.5628L13.8658 57.1295L3.53236 67.3478L3.52621 67.3539L3.52009 67.36C3.5138 67.3663 3.50722 67.3725 3.5004 67.3785C3.48096 67.3884 3.45852 67.4 3.43394 67.4131L3.40223 67.4301L3.30331 67.4674L3.18767 67.4787L3.0931 67.488L2.87366 67.4545L2.83986 67.4567L2.74077 67.3946L2.66141 67.3616C2.65952 67.3599 2.65764 67.3581 2.65578 67.3564C2.55019 67.2493 2.5 67.1165 2.5 66.9888C2.5 66.8587 2.55203 66.7234 2.66161 66.6154L2.66431 66.6127L12.9864 56.4L14.6444 54.7596L13.1229 52.9919C9.27107 48.5168 6.80893 43.0625 6.01938 37.2724C5.22985 31.4826 6.14457 25.5907 8.65896 20.2887C11.1736 14.9862 15.1858 10.4903 20.2302 7.33592C25.2747 4.18151 31.1386 2.50201 37.1315 2.5Z" stroke="#A8BED6" stroke-width="5"/>
</svg>
