<svg width="182" height="216" viewBox="0 0 182 216" fill="none" xmlns="http://www.w3.org/2000/svg">
<path d="M36.1455 68.2909C53.8989 68.2909 68.2909 53.8989 68.2909 36.1455C68.2909 18.392 53.8989 4 36.1455 4C18.392 4 4 18.392 4 36.1455C4 53.8989 18.392 68.2909 36.1455 68.2909Z" stroke="white" stroke-width="8"/>
<path d="M75.2115 108.877V93.9364C75.2115 88.1378 72.9607 82.5767 68.9543 78.4765C64.9478 74.3762 59.514 72.0728 53.848 72.0728H25.3634C19.6975 72.0728 14.2636 74.3762 10.2572 78.4765C6.25078 82.5767 4 88.1378 4 93.9364L4 190.136C4 195.935 6.25078 201.496 10.2572 205.596C14.2636 209.697 19.6975 212 25.3634 212H53.848C59.514 212 64.9478 209.697 68.9543 205.596C72.9607 201.496 75.2115 195.935 75.2115 190.136V131.556L85.1811 141.759C86.6539 143.257 88.6455 144.097 90.7213 144.097C92.7972 144.097 94.7888 143.257 96.2616 141.759V141.759C97.7244 140.252 98.5454 138.214 98.5454 136.089C98.5454 133.965 97.7244 131.927 96.2616 130.42L75.2115 108.877Z" stroke="white" stroke-width="8"/>
<path d="M142.036 68.2909C159.79 68.2909 174.182 53.8989 174.182 36.1455C174.182 18.392 159.79 4 142.036 4C124.283 4 109.891 18.392 109.891 36.1455C109.891 53.8989 124.283 68.2909 142.036 68.2909Z" stroke="white" stroke-width="8"/>
<path d="M156.408 72.0728H127.666C121.949 72.0728 116.466 74.3762 112.423 78.4765C108.38 82.5767 106.109 88.1378 106.109 93.9364V190.136C106.109 195.935 108.38 201.496 112.423 205.596C116.466 209.697 121.949 212 127.666 212H156.408C162.125 212 167.608 209.697 171.65 205.596C175.693 201.496 177.964 195.935 177.964 190.136V93.9364C177.964 88.1378 175.693 82.5767 171.65 78.4765C167.608 74.3762 162.125 72.0728 156.408 72.0728ZM159.411 166.101C159.403 168.225 158.568 170.259 157.088 171.761C155.607 173.263 153.601 174.11 151.507 174.118C149.413 174.11 147.407 173.263 145.926 171.761C144.446 170.259 143.611 168.225 143.603 166.101V90.307C143.611 88.1832 144.446 86.1486 145.926 84.6469C147.407 83.1451 149.413 82.298 151.507 82.2904V82.2904C153.601 82.298 155.607 83.1451 157.088 84.6469C158.568 86.1486 159.403 88.1832 159.411 90.307V166.101Z" stroke="white" stroke-width="8"/>
</svg>
