<svg width="90" height="106" viewBox="0 0 90 106" fill="none" xmlns="http://www.w3.org/2000/svg">
<path d="M68.55 81.6055C67.8255 79.6405 65.9531 78.3352 63.8587 78.3352H26.0853C23.9824 78.3352 22.1042 79.651 21.386 81.6275L13.7257 102.708C13.0074 104.684 11.1293 106 9.02632 106H5.28208C1.77266 106 -0.644823 102.479 0.615798 99.204L37.5662 3.20395C38.3092 1.2736 40.1641 0 42.2325 0H47.6964C49.7637 0 51.6178 1.27226 52.3616 3.20114L89.3784 99.2011C90.6415 102.477 88.2239 106 84.7132 106H81.0296C78.9353 106 77.0629 104.695 76.3383 102.73L68.55 81.6055ZM29.2939 60.1156C28.1013 63.3779 30.5165 66.8324 33.99 66.8324H56.0001C59.4763 66.8324 61.8917 63.3728 60.6939 60.1095L49.6666 30.0674C48.0616 25.6949 41.876 25.699 40.2768 30.0735L29.2939 60.1156Z" fill="white"/>
</svg>
