<svg width="128" height="85" viewBox="0 0 128 85" fill="none" xmlns="http://www.w3.org/2000/svg">
<path d="M58.8857 63.5537H5.18532C2.51867 63.5537 0.356934 65.7155 0.356934 68.3821V79.3557C0.356934 82.0223 2.51867 84.1841 5.18532 84.1841H58.8857C61.5524 84.1841 63.7141 82.0223 63.7141 79.3557V68.3821C63.7141 65.7155 61.5524 63.5537 58.8857 63.5537Z" fill="white"/>
<path d="M79.955 31.3706H5.18532C2.51867 31.3706 0.356934 33.5323 0.356934 36.199V47.7608C0.356934 50.4274 2.51867 52.5892 5.18532 52.5892H79.955C82.6217 52.5892 84.7834 50.4274 84.7834 47.7608V36.199C84.7834 33.5323 82.6217 31.3706 79.955 31.3706Z" fill="white"/>
<path d="M122.972 0.0561523H5.18532C2.51867 0.0561523 0.356934 2.21789 0.356934 4.88454V16.1478C0.356934 18.8145 2.51867 20.9762 5.18532 20.9762H122.972C125.638 20.9762 127.8 18.8145 127.8 16.1478V4.88454C127.8 2.21789 125.638 0.0561523 122.972 0.0561523Z" fill="white"/>
</svg>
