<svg width="54" height="73" viewBox="0 0 54 73" fill="none" xmlns="http://www.w3.org/2000/svg">
<path d="M24.5362 42.8593C24.8593 42.4391 25.2748 42.0986 25.7508 41.8643C26.2268 41.63 26.7505 41.5081 27.2812 41.5081C27.812 41.5081 28.3357 41.63 28.8117 41.8643C29.2877 42.0986 29.7032 42.4391 30.0263 42.8593C37.4513 52.7116 44.88 62.5602 52.3125 72.405C52.4067 72.6135 52.57 72.7831 52.7749 72.8854C52.9799 72.9876 53.2139 73.0162 53.4375 72.9663C53.5663 72.9189 53.6833 72.8441 53.7804 72.7472C53.8775 72.6503 53.9524 72.5336 54 72.405V8.41919C54 6.18628 53.1111 4.04483 51.5287 2.46592C49.9464 0.887019 47.8003 0 45.5625 0L8.4375 0C6.19974 0 4.05362 0.887019 2.47129 2.46592C0.888948 4.04483 0 6.18628 0 8.41919L0 72.405C0.0475666 72.5336 0.122479 72.6503 0.219583 72.7472C0.316687 72.8441 0.433676 72.9189 0.5625 72.9663C0.78611 73.0162 1.02013 72.9876 1.22507 72.8854C1.43002 72.7831 1.59334 72.6135 1.6875 72.405L24.5362 42.8593Z" fill="white"/>
</svg>
